<svg width="37" height="30" viewBox="0 0 37 30" fill="none" xmlns="http://www.w3.org/2000/svg">
<path d="M26.3333 10L16.3333 20M26.3333 20L16.3333 10L26.3333 20Z" stroke="#707070" stroke-width="3" stroke-linecap="round"/>
<path d="M10.3333 3C10.6438 2.58601 11.0464 2.25 11.5093 2.01857C11.9721 1.78715 12.4825 1.66666 13 1.66666H31.3333C32.2174 1.66666 33.0652 2.01785 33.6904 2.64297C34.3155 3.2681 34.6667 4.11594 34.6667 5V25C34.6667 25.8841 34.3155 26.7319 33.6904 27.357C33.0652 27.9821 32.2174 28.3333 31.3333 28.3333H13C12.4825 28.3333 11.9721 28.2128 11.5093 27.9814C11.0464 27.75 10.6438 27.414 10.3333 27L2.83333 17C2.40059 16.423 2.16667 15.7212 2.16667 15C2.16667 14.2788 2.40059 13.577 2.83333 13L10.3333 3V3Z" stroke="#707070" stroke-width="3" stroke-linecap="round" stroke-linejoin="round"/>
</svg>
